<svg xmlns="http://www.w3.org/2000/svg" width="76.601" height="109.938" viewBox="0 0 76.601 109.938">
  <g id="coffee-cup" transform="translate(-74.293)">
    <path id="Path_2230" data-name="Path 2230" d="M168.066,10.068H105.444l.845-6.408A4.207,4.207,0,0,1,110.461,0h52.588a4.211,4.211,0,0,1,4.174,3.661Z" transform="translate(-24.162)" fill="#465a61"/>
    <path id="Path_2231" data-name="Path 2231" d="M159.845,10.068h-54.4l.845-6.408A4.207,4.207,0,0,1,110.461,0h44.365A4.211,4.211,0,0,1,159,3.661Z" transform="translate(-24.162)" fill="#596c76"/>
    <path id="Path_2232" data-name="Path 2232" d="M147.805,63.328H77.381a3.088,3.088,0,0,1-3.076-3.361l1.056-11.9a3.5,3.5,0,0,1,3.489-3.194h67.49a3.5,3.5,0,0,1,3.486,3.194l1.056,11.9A3.088,3.088,0,0,1,147.805,63.328Z" transform="translate(0 -34.808)" fill="#465a61"/>
    <path id="Path_2233" data-name="Path 2233" d="M142.956,63.328H77.381a3.088,3.088,0,0,1-3.076-3.361l1.056-11.9a3.5,3.5,0,0,1,3.489-3.194h59.266A3.5,3.5,0,0,1,141.6,48.07Z" transform="translate(0 -34.808)" fill="#596c76"/>
    <path id="Path_2234" data-name="Path 2234" d="M159.272,127.113l-8.508,77.995a3.841,3.841,0,0,1-3.816,3.424h-45.13A3.841,3.841,0,0,1,98,205.108l-8.508-77.995Z" transform="translate(-11.788 -98.594)" fill="#fedba6"/>
    <path id="Path_2235" data-name="Path 2235" d="M151.19,127.113l-8.508,77.995a3.839,3.839,0,0,1-3.816,3.424H101.817A3.841,3.841,0,0,1,98,205.108l-8.508-77.995Z" transform="translate(-11.788 -98.594)" fill="#ffefd2"/>
    <path id="Path_2236" data-name="Path 2236" d="M163.279,193.84l-4.57,41.857-.713,6.54H102.042l-.712-6.54L96.76,193.84Z" transform="translate(-17.426 -150.35)" fill="#008b81"/>
    <path id="Path_2237" data-name="Path 2237" d="M155.2,193.84,150.628,235.7l-.713,6.54H102.042l-.712-6.54L96.76,193.84Z" transform="translate(-17.426 -150.35)" fill="#01998d"/>
    <path id="Path_2238" data-name="Path 2238" d="M209.571,260.016l-4.9,5.266a10.792,10.792,0,0,1-11.694,2.751,10.585,10.585,0,0,1-2.237-1.155,10.916,10.916,0,0,1-1.319-1.05,10.6,10.6,0,0,1-1.142-1.243,10.786,10.786,0,0,1,.6-14.007l4.9-5.266a10.781,10.781,0,0,1,15.25-.545,10.775,10.775,0,0,1,.545,15.25Z" transform="translate(-86.63 -187.607)" fill="#883f2e"/>
    <path id="Path_2239" data-name="Path 2239" d="M201.978,262.391l-4.9,5.265a10.739,10.739,0,0,1-4.1,2.752,10.8,10.8,0,0,1-4.1-17.457l4.9-5.265a10.7,10.7,0,0,1,4.106-2.749,10.8,10.8,0,0,1,4.1,17.454Z" transform="translate(-86.628 -189.983)" fill="#a44f3e"/>
    <g id="Group_3924" data-name="Group 3924" transform="translate(101.649 67.13)">
      <path id="Path_2240" data-name="Path 2240" d="M207.352,302.037l-8.669,9.309a10.918,10.918,0,0,1-1.319-1.05,10.6,10.6,0,0,1-1.142-1.243l8.667-9.311a1.684,1.684,0,0,1,2.463,2.3Z" transform="translate(-196.221 -299.206)" fill="#eb9c8d"/>
    </g>
    <g id="Group_3925" data-name="Group 3925" transform="translate(115.289 56.109)">
      <path id="Path_2241" data-name="Path 2241" d="M265.267,252.376l-5.335,5.73a1.683,1.683,0,1,1-2.463-2.293l5.335-5.73a10.744,10.744,0,0,1,1.319,1.05A10.867,10.867,0,0,1,265.267,252.376Z" transform="translate(-257.016 -250.083)" fill="#eb9c8d"/>
    </g>
  </g>
</svg>
