<?xml version="1.0" encoding="iso-8859-1"?>
<!-- Generator: Adobe Illustrator 19.0.0, SVG Export Plug-In . SVG Version: 6.00 Build 0)  -->
<svg version="1.1" id="Capa_1" xmlns="http://www.w3.org/2000/svg" xmlns:xlink="http://www.w3.org/1999/xlink" x="0px" y="0px"
	 viewBox="0 0 512 512" style="enable-background:new 0 0 512 512;" xml:space="preserve">
<path style="fill:#FD4E26;" d="M497,91H151.245v45c0,8.291-6.709,15-15,15s-15-6.709-15-15V91H15c-8.401,0-15,6.599-15,15v90
	c0,8.399,6.599,15,15,15c24.901,0,45,20.099,45,45c0,24.899-20.099,45-45,45c-8.401,0-15,6.599-15,15v90c0,8.399,6.599,15,15,15h105
	v-45c0-8.291,6.709-15,15-15s15,6.709,15,15v45h347c8.401,0,15-6.601,15-15V106C512,97.599,505.401,91,497,91z M150,316
	c0,8.291-6.709,15-15,15s-15-6.709-15-15v-30c0-8.291,6.709-15,15-15s15,6.709,15,15V316z M150,226c0,8.291-6.709,15-15,15
	s-15-6.709-15-15v-30c0-8.291,6.709-15,15-15s15,6.709,15,15V226z"/>
<path style="fill:#FD3018;" d="M60,256c0,24.899-20.099,45-45,45c-8.401,0-15,6.599-15,15v90c0,8.399,6.599,15,15,15h105v-45
	c0-8.291,6.709-15,15-15s15,6.709,15,15v45h347c8.401,0,15-6.601,15-15V256H60z M150,316c0,8.291-6.709,15-15,15s-15-6.709-15-15
	v-30c0-8.291,6.709-15,15-15s15,6.709,15,15V316z"/>
<path style="fill:#FEDB41;" d="M287,241c-24.814,0-45-20.186-45-45s20.186-45,45-45s45,20.186,45,45S311.814,241,287,241z"/>
<path style="fill:#FCBF29;" d="M407,361c-24.814,0-45-20.186-45-45s20.186-45,45-45s45,20.186,45,45S431.814,361,407,361z"/>
<path style="fill:#FEDB41;" d="M419.599,174.399L365.3,256L347,283.299l-47.401,71.1c-4.499,6.601-13.799,8.701-21,4.2
	c-6.899-4.799-8.699-14.099-4.199-21L328.7,256l18.3-27.301l47.401-71.1c4.799-6.899,14.099-8.699,21-4.2
	C422.3,158.2,424.1,167.5,419.599,174.399z"/>
<path style="fill:#FCBF29;" d="M365.3,256L347,283.299l-47.401,71.1c-4.499,6.601-13.799,8.701-21,4.2
	c-6.899-4.799-8.699-14.099-4.199-21L328.7,256H365.3z"/>
<g>
</g>
<g>
</g>
<g>
</g>
<g>
</g>
<g>
</g>
<g>
</g>
<g>
</g>
<g>
</g>
<g>
</g>
<g>
</g>
<g>
</g>
<g>
</g>
<g>
</g>
<g>
</g>
<g>
</g>
</svg>
