<svg xmlns="http://www.w3.org/2000/svg" width="64.915" height="60.26" viewBox="0 0 64.915 60.26">
  <g id="helmet" transform="translate(-8.116 -21.661)">
    <path id="Path_2334" data-name="Path 2334" d="M38.893,81.921c-6.466,0-9.957-.905-11.9-2.974-2.328-2.457-2.069-6.595-1.552-12.8.259-2.974.517-6.336.517-10.216,0-1.94-4.655-4.009-9.181-6.078-5.3-2.328-7.888-3.75-8.405-4.914l-.259-.517.129-.517A33.448,33.448,0,0,1,39.668,21.661c19.4,0,33.363,13.061,33.363,30.906,0,8.147-2.457,15.906-6.724,21.466C60.1,81.921,49.367,81.921,38.893,81.921ZM37.341,65.369A3.233,3.233,0,1,0,40.574,68.6h0A3.2,3.2,0,0,0,37.341,65.369Z" transform="translate(0 0)" fill="#0c6ff9"/>
    <circle id="Ellipse_61" data-name="Ellipse 61" cx="3.233" cy="3.233" r="3.233" transform="translate(34.108 65.369)" fill="#e8e8e8"/>
  </g>
</svg>
