<?xml version="1.0" encoding="iso-8859-1"?>
<!-- Generator: Adobe Illustrator 18.0.0, SVG Export Plug-In . SVG Version: 6.00 Build 0)  -->
<!DOCTYPE svg PUBLIC "-//W3C//DTD SVG 1.1//EN" "http://www.w3.org/Graphics/SVG/1.1/DTD/svg11.dtd">
<svg version="1.1" id="Capa_1" xmlns="http://www.w3.org/2000/svg" xmlns:xlink="http://www.w3.org/1999/xlink" x="0px" y="0px"
	 viewBox="0 0 277.366 277.366" style="enable-background:new 0 0 277.366 277.366;" xml:space="preserve">
<g>
	<path d="M257.799,55.704c-7.706-3.866-17.016-2.36-23.111,3.734l-39.2,39.201l-38.526-86.757C153.753,4.657,146.589,0,138.683,0
		s-15.07,4.657-18.278,11.883L81.878,98.64l-39.2-39.201c-6.094-6.093-15.405-7.6-23.111-3.733
		C11.864,59.569,7.502,67.935,8.745,76.463l17.879,122.785c1.431,9.829,9.858,17.118,19.791,17.118h184.536
		c9.933,0,18.36-7.289,19.791-17.118l17.88-122.786C269.864,67.934,265.502,59.568,257.799,55.704z"/>
	<path d="M230.951,237.366H46.415c-11.046,0-20,8.954-20,20s8.954,20,20,20h184.536c11.046,0,20-8.954,20-20
		S241.997,237.366,230.951,237.366z"/>
</g>
<g>
</g>
<g>
</g>
<g>
</g>
<g>
</g>
<g>
</g>
<g>
</g>
<g>
</g>
<g>
</g>
<g>
</g>
<g>
</g>
<g>
</g>
<g>
</g>
<g>
</g>
<g>
</g>
<g>
</g>
</svg>
