<svg xmlns="http://www.w3.org/2000/svg" width="71.675" height="126.485" viewBox="0 0 71.675 126.485">
  <g id="deadline" transform="translate(-60 -8)">
    <g id="Group_16" data-name="Group 16" transform="translate(66.968 8)">
      <path id="Path_22" data-name="Path 22" d="M130.96,39.2V8H73.222V39.2A29.046,29.046,0,0,0,89.535,65.364a6.335,6.335,0,0,1,3.6,5.69v.378a6.335,6.335,0,0,1-3.6,5.69,29.046,29.046,0,0,0-16.313,26.164v31.2H130.96v-31.2a29.046,29.046,0,0,0-16.313-26.164,6.335,6.335,0,0,1-3.6-5.69v-.378a6.335,6.335,0,0,1,3.6-5.69A29.045,29.045,0,0,0,130.96,39.2Z" transform="translate(-73.222 -8)" fill="#f5f5f5"/>
    </g>
    <g id="Group_17" data-name="Group 17" transform="translate(104.97 79.332)">
      <path id="Path_23" data-name="Path 23" d="M160.849,168.884a1.581,1.581,0,0,1-1.581-1.581,23.393,23.393,0,0,0-13.049-20.95,1.581,1.581,0,0,1,1.381-2.844A26.572,26.572,0,0,1,162.43,167.3,1.581,1.581,0,0,1,160.849,168.884Z" transform="translate(-145.328 -143.35)" fill="#fff"/>
    </g>
    <g id="Group_18" data-name="Group 18" transform="translate(66.968 8)">
      <path id="Path_24" data-name="Path 24" d="M104.292,77.121a6.335,6.335,0,0,0,3.6-5.69v-.378a6.335,6.335,0,0,0-3.6-5.69A29.046,29.046,0,0,1,87.979,39.2V8H73.222V39.2A29.047,29.047,0,0,0,89.535,65.364a6.335,6.335,0,0,1,3.6,5.69v.378a6.335,6.335,0,0,1-3.6,5.69,29.046,29.046,0,0,0-16.313,26.164v31.2H87.979v-31.2A29.046,29.046,0,0,1,104.292,77.121Z" transform="translate(-73.222 -8)" fill="#dcdcdc"/>
    </g>
    <g id="Group_19" data-name="Group 19" transform="translate(74.498 49.995)">
      <path id="Path_25" data-name="Path 25" d="M87.509,87.683A23.813,23.813,0,0,0,108.768,100.9h.16a23.813,23.813,0,0,0,21.26-13.217Z" transform="translate(-87.509 -87.683)" fill="#0c6ff9"/>
    </g>
    <g id="Group_20" data-name="Group 20" transform="translate(71.945 98.347)">
      <path id="Path_26" data-name="Path 26" d="M130.449,207.37v-3.928a23.939,23.939,0,0,0-23.812-24.012h-.16a23.94,23.94,0,0,0-23.812,24.012v3.928Z" transform="translate(-82.666 -179.429)" fill="#0c6ff9"/>
    </g>
    <g id="Group_21" data-name="Group 21" transform="translate(93.729 58.192)">
      <rect id="Rectangle_11" data-name="Rectangle 11" width="4.216" height="42.162" transform="translate(0)" fill="#0c6ff9"/>
    </g>
    <g id="Group_22" data-name="Group 22" transform="translate(71.946 102.971)">
      <path id="Path_27" data-name="Path 27" d="M92.446,188.518c0-.1,0-.209.006-.314a24.056,24.056,0,0,0-9.785,19.387v3.928h9.779v-23Z" transform="translate(-82.667 -188.204)" fill="#125bc2"/>
    </g>
    <g id="Group_23" data-name="Group 23" transform="translate(93.729 62.782)">
      <path id="Path_28" data-name="Path 28" d="M124,128.868a28.735,28.735,0,0,1,4.216-2.535V114.482A28.688,28.688,0,0,1,124,111.946Z" transform="translate(-124 -111.946)" fill="#125bc2"/>
    </g>
    <g id="Group_24" data-name="Group 24" transform="translate(74.498 49.995)">
      <path id="Path_29" data-name="Path 29" d="M107.284,100.851A29.071,29.071,0,0,1,96.8,87.683H87.509A23.838,23.838,0,0,0,107.284,100.851Z" transform="translate(-87.509 -87.683)" fill="#125bc2"/>
    </g>
    <g id="Group_25" data-name="Group 25" transform="translate(60 8.084)">
      <path id="Path_30" data-name="Path 30" d="M128.676,19.2H63a3,3,0,0,1-3-3V11.158a3,3,0,0,1,3-3h65.677a3,3,0,0,1,3,3V16.2A3,3,0,0,1,128.676,19.2Z" transform="translate(-60 -8.159)" fill="#ff9341"/>
    </g>
    <g id="Group_26" data-name="Group 26" transform="translate(60 123.359)">
      <path id="Path_31" data-name="Path 31" d="M63,226.889h65.677a3,3,0,0,1,3,3v5.045a3,3,0,0,1-3,3H63a3,3,0,0,1-3-3v-5.045A3,3,0,0,1,63,226.889Z" transform="translate(-60 -226.889)" fill="#ff9341"/>
    </g>
    <g id="Group_27" data-name="Group 27" transform="translate(84.301 21.777)">
      <circle id="Ellipse_3" data-name="Ellipse 3" cx="4.743" cy="4.743" r="4.743" transform="translate(0)" fill="#cbe1ff"/>
    </g>
    <g id="Group_28" data-name="Group 28" transform="translate(84.301 112.337)">
      <circle id="Ellipse_4" data-name="Ellipse 4" cx="4.743" cy="4.743" r="4.743" transform="translate(0)" fill="#cbe1ff"/>
    </g>
    <g id="Group_29" data-name="Group 29" transform="translate(60 8.084)">
      <path id="Path_32" data-name="Path 32" d="M74.757,16.2V11.158a3,3,0,0,1,3-3H63a3,3,0,0,0-3,3V16.2a3,3,0,0,0,3,3H77.755A3,3,0,0,1,74.757,16.2Z" transform="translate(-60 -8.159)" fill="#ff7e1d"/>
    </g>
    <g id="Group_30" data-name="Group 30" transform="translate(60 123.359)">
      <path id="Path_33" data-name="Path 33" d="M74.757,234.932v-5.044a3,3,0,0,1,3-3H63a3,3,0,0,0-3,3v5.044a3,3,0,0,0,3,3H77.755A3,3,0,0,1,74.757,234.932Z" transform="translate(-60 -226.889)" fill="#ff7e1d"/>
    </g>
  </g>
</svg>
