<svg xmlns="http://www.w3.org/2000/svg" width="46.53" height="64.296" viewBox="0 0 46.53 64.296">
  <g id="scooter-front-view" transform="translate(-80.325)">
    <g id="Layer_1_117_" transform="translate(80.325)">
      <g id="Group_4004" data-name="Group 4004" transform="translate(0)">
        <path id="Path_2335" data-name="Path 2335" d="M244.065,376.125a5.657,5.657,0,0,0-5.64,5.64v11.421a5.64,5.64,0,1,0,11.28,0V381.765A5.656,5.656,0,0,0,244.065,376.125Z" transform="translate(-220.941 -334.53)" fill="#0c6ff9"/>
        <path id="Path_2336" data-name="Path 2336" d="M123.894,7.05H113.037a10.045,10.045,0,0,0-19.176,0H83.145a2.82,2.82,0,1,0,0,5.64H94a9.739,9.739,0,0,0,4.371,5.64A18.484,18.484,0,0,0,85.119,35.955v14.8a4.694,4.694,0,0,0,4.653,4.653h3.807V47.376a10.011,10.011,0,0,1,20.022,0v8.037h3.807a4.694,4.694,0,0,0,4.653-4.653V36.1a18.355,18.355,0,0,0-13.254-17.625,9.739,9.739,0,0,0,4.371-5.64h10.857a2.828,2.828,0,0,0,2.82-2.82A3.073,3.073,0,0,0,123.894,7.05Zm-20.445,8.6a5.64,5.64,0,1,1,5.64-5.64A5.483,5.483,0,0,1,103.449,15.651Z" transform="translate(-80.325)" fill="#0c6ff9"/>
      </g>
    </g>
  </g>
</svg>
