<?xml version="1.0" encoding="utf-8"?>
<!-- Generator: Adobe Illustrator 25.4.1, SVG Export Plug-In . SVG Version: 6.00 Build 0)  -->
<svg version="1.1" id="Layer_1" xmlns="http://www.w3.org/2000/svg" xmlns:xlink="http://www.w3.org/1999/xlink" x="0px" y="0px"
	 viewBox="0 0 512 512" style="enable-background:new 0 0 512 512;" xml:space="preserve">
<style type="text/css">
	.st0{fill:#FF624B;}
	.st1{fill:#FF4B34;}
	.st2{fill:#FFC34C;}
	.st3{fill:#FCE575;}
	.st4{fill:#FFF4C1;}
	.st5{fill:#FFD551;}
	.st6{fill:#FFA730;}
	.st7{font-family:'SVN-ProductSansBold';}
	.st8{font-size:125.7249px;}
</style>
<g>
	<g>
		<path class="st0" d="M255.6,318.5c-3.4,0-6.7-1.9-8.5-4.8c-11.2-18.4-30.7-29.4-52.3-29.4c-6.7,0-13.3,1.1-19.7,3.3
			c-1,0.4-2.1,0.5-3.2,0.5c-2.7,0-5.3-1.1-7.1-3c-1.9-1.9-2.9-4.5-2.8-7.2v-0.7c0-0.3,0-0.5,0-0.8c0-27-17.3-50.5-43.2-58.4
			c-3.2-1-5.7-3.5-6.7-6.8L112,211c-0.9-3-0.3-6.3,1.6-8.8c7.6-10,11.8-21.9,12.3-34.3c0.5-13.4-3.7-27.1-11.8-38.6
			c-1.4-2-1.8-4.6-1.1-7l0.3-1c0-0.1,0.4-1.2,0.7-2.2c0.9-2.5,2.9-4.4,5.5-5.1l1.1-0.3c27.2-6.8,46.2-31.2,46.2-59.3
			c0-0.3,0-0.6,0-0.9v-0.8c-0.1-3.4,1.5-6.6,4.3-8.5c0.2-0.1,0.7-0.5,0.7-0.5l0.3-0.2c1.6-1,3.4-1.5,5.3-1.5c1.3,0,2.6,0.3,3.8,0.8
			l0.2,0.1c7.4,3.1,15.2,4.6,23.3,4.6c19.5,0,38-9.5,49.5-25.3c1.9-2.6,4.9-4.1,8.1-4.1s6.1,1.5,8,4c11.7,15.5,29.5,24.4,48.9,24.4
			c2.3,0,4.6-0.1,7-0.4c2.8-0.3,5.8-0.9,9.2-1.8c0.8-0.2,1.6-0.3,2.3-0.3c1.9,0,3.7,0.6,5.3,1.7l0.3,0.2c0.2,0.1,1,0.7,1,0.7
			c2.4,1.8,3.8,4.6,3.7,7.6v1.1c0,0.3,0,0.6,0,1c0,26.9,18,51,43.7,58.6c3.1,0.9,5.5,3.3,6.6,6.3s0.6,6.4-1.3,9
			c-7.2,10.3-11.1,22.4-11.1,35.1c0,13.1,4.1,25.6,11.9,36.2c1.9,2.6,2.4,5.8,1.5,8.8s-3.2,5.4-6.2,6.5c-24,8.7-40.1,31.7-40.3,57.2
			c0,5.5-4.5,10-10,10c-1.1,0-2.2-0.2-3.2-0.5c-6.4-2.2-13-3.3-19.7-3.3c-22.8,0-43.5,12.5-54.1,32.7l-0.1,0.1
			c-1.7,3.3-5.1,5.3-8.8,5.4C256.3,318.4,255.8,318.4,255.6,318.5L255.6,318.5z"/>
	</g>
	<g>
		<path class="st1" d="M276.8,284.2c-6.7,0-13.3,1.1-19.7,3.3c-1,0.4-2.1,0.5-3.2,0.5c-2.7,0-5.3-1.1-7.1-3
			c-1.9-1.9-2.9-4.5-2.8-7.2v-0.7c0-0.3,0-0.5,0-0.8c0-27-17.3-50.5-43.2-58.4c-3.2-1-5.7-3.5-6.7-6.8l-0.1-0.2
			c-0.9-3-0.3-6.3,1.6-8.8c7.6-10,11.8-21.9,12.3-34.3c0.5-13.4-3.7-27.1-11.8-38.6c-1.4-2-1.8-4.6-1.1-7l0.3-1
			c0-0.1,0.4-1.2,0.7-2.2c0.9-2.5,2.9-4.4,5.5-5.1l1.1-0.3c27.2-6.8,46.2-31.2,46.2-59.3c0-0.3,0-0.6,0-0.9v-0.8
			c-0.1-3.4,1.5-6.6,4.3-8.5c0.2-0.1,0.7-0.5,0.7-0.5l0.3-0.2c1.6-1,3.4-1.5,5.3-1.5c1.3,0,2.6,0.3,3.8,0.8l0.2,0.1
			c7.4,3.1,15.2,4.6,23.3,4.6c6.1,0,12.2-0.9,18-2.7C291.1,41.4,279,33.5,270.3,22c-1.9-2.5-4.8-4-8-4s-6.2,1.5-8.1,4.1
			c-11.5,15.8-30,25.3-49.5,25.3c-8.1,0-15.9-1.5-23.3-4.6l-0.2-0.1c-1.2-0.5-2.5-0.8-3.8-0.8c-1.9,0-3.7,0.5-5.3,1.5l-0.3,0.2
			c0,0-0.6,0.4-0.7,0.5c-2.8,1.9-4.4,5.1-4.3,8.5v0.8c0,0.3,0,0.6,0,0.9c0,28.1-19,52.4-46.2,59.3l-1.1,0.3
			c-2.6,0.7-4.7,2.5-5.5,5.1c-0.3,1-0.7,2.1-0.7,2.2l-0.3,1c-0.8,2.4-0.4,5,1.1,7c8.1,11.5,12.3,25.2,11.8,38.6
			c-0.5,12.5-4.7,24.3-12.3,34.3c-1.9,2.5-2.5,5.8-1.6,8.8l0.1,0.2c0.9,3.2,3.4,5.8,6.7,6.8c25.8,7.9,43.2,31.4,43.2,58.4
			c0,0.2,0,0.5,0,0.8v0.7c-0.1,2.7,0.9,5.3,2.8,7.2c1.9,1.9,4.5,3,7.1,3c1.1,0,2.2-0.2,3.2-0.5c6.4-2.2,13-3.3,19.7-3.3
			c21.5,0,41.1,11,52.3,29.4c1.8,3,5.1,4.8,8.5,4.8h0.6c0.1,0,0.6,0,1.2,0c3.7,0,7.1-2.1,8.8-5.4l0.1-0.1
			c6.2-11.7,15.8-20.9,27.2-26.5C288.1,285,282.5,284.2,276.8,284.2z"/>
	</g>
	<g>
		<circle class="st2" cx="256" cy="168.2" r="105.3"/>
	</g>
	<g>
		<circle class="st3" cx="256" cy="168.2" r="85.3"/>
	</g>
	<g>
		<path class="st4" d="M284.5,241c-2.4,0-4.6-1.4-5.6-3.8c-1.2-3.1,0.2-6.6,3.3-7.8l0,0c0.3-0.1,26.1-10.9,33.1-32.3
			c1-3.2,4.4-4.9,7.6-3.8c3.1,1,4.9,4.4,3.8,7.6c-8.7,26.8-38.7,39.2-40,39.7C286,240.9,285.3,241,284.5,241z"/>
	</g>
	<g>
		<path class="st5" d="M347.3,168.2c0,4.7-0.4,9.3-1,13.8l7.9,1.1c0.7-4.9,1.1-9.8,1.1-14.9c0-27.7-11.4-52.7-29.7-70.7l-3.2,8.2
			C337.8,121.9,347.3,144,347.3,168.2z"/>
	</g>
	<text transform="matrix(1 0 0 1 222.7969 208.3716)" class="st6 st7 st8">3</text>
</g>
</svg>
